<svg width="168" height="56" xmlns="http://www.w3.org/2000/svg" version="1.1">
 <title>taml</title>
 <g id="Layer_1">
  <title>Layer 1</title>
  <line style="--darkreader-inline-stroke:#60686c;" stroke-width="8" stroke-linecap="undefined" stroke-linejoin="undefined" id="svg_2" y2="5" x2="141.18557" y1="5" x1="11.18557" stroke="#666666" fill="none"/>
  <line style="--darkreader-inline-stroke:#60686c;" stroke-width="8" stroke-linecap="undefined" stroke-linejoin="undefined" id="svg_3" y2="55" x2="31.39175" y1="5" x1="31.39175" stroke="#666666" fill="none"/>
  <line style="--darkreader-inline-stroke:#60686c;" stroke-linecap="undefined" stroke-linejoin="undefined" id="svg_4" y2="55" x2="31.18557" y1="5" x1="51.18557" stroke-width="8" stroke="#666666" fill="none"/>
  <line style="--darkreader-inline-stroke:#60686c;" stroke-linecap="undefined" stroke-linejoin="undefined" id="svg_5" y2="55" x2="71.18557" y1="5" x1="51.18557" stroke-width="8" stroke="#666666" fill="none"/>
  <line style="--darkreader-inline-stroke:#60686c;" stroke-linecap="undefined" stroke-linejoin="undefined" id="svg_6" y2="55" x2="71.18557" y1="5" x1="81.18557" stroke-width="8" stroke="#666666" fill="none"/>
  <line style="--darkreader-inline-stroke:#60686c;" stroke-linecap="undefined" stroke-linejoin="undefined" id="svg_7" y2="55" x2="91.18557" y1="5" x1="81.18557" stroke-width="8" stroke="#666666" fill="none"/>
  <line style="--darkreader-inline-stroke:#60686c;" stroke-linecap="undefined" stroke-linejoin="undefined" id="svg_8" y2="55" x2="91.18557" y1="5" x1="101.18557" stroke-width="8" stroke="#666666" fill="none"/>
  <line style="--darkreader-inline-stroke:#60686c;" stroke-linecap="undefined" stroke-linejoin="undefined" id="svg_9" y2="55" x2="131.18557" y1="5" x1="101.18557" stroke-width="8" stroke="#666666" fill="none"/>
  <line style="--darkreader-inline-stroke:#60686c;" stroke-linecap="undefined" stroke-linejoin="undefined" id="svg_10" y2="55" x2="131.18557" y1="5" x1="131.18557" stroke-width="8" stroke="#666666" fill="none"/>
  <line style="--darkreader-inline-stroke:#60686c;" stroke-linecap="undefined" stroke-linejoin="undefined" id="svg_11" y2="52" x2="161.18557" y1="52" x1="128.18557" stroke-width="8" stroke="#666666" fill="none"/>
  <line style="--darkreader-inline-stroke:#60686c;" stroke-linecap="undefined" stroke-linejoin="undefined" id="svg_12" y2="30" x2="60.18557" y1="35" x1="39.18557" stroke-width="8" stroke="#666666" fill="none"/>
  <path style="--darkreader-inline-stroke:#60686c;" d="m70.02062,54.90722c0.20618,0 0.20618,0 0.41237,0c0,0 0,0 0.20619,0c0,0 0.20618,0 0.41237,0c0,0 0.20618,0 0.20618,0c0.20618,0 0.41237,0 0.41237,0c0.20619,0 0.20619,0 0.20619,0c0,0 0.20618,0 0.20618,0c0,0 0,0 0,0c0,0 0.20618,0 0.20618,0c0,0 0,0 0,0l0,0" id="svg_16" stroke-width="6" stroke="#666666" fill="none"/>
  <path style="--darkreader-inline-stroke:#60686c;" d="m69.40206,55.52577c0,0 0,0 0.20619,0c0,0 0,0 0.20618,0c0,0 0.20618,0 0.20618,0c0.20618,0 0.41237,-0.20618 0.61856,-0.20618c0.20618,0 0.41237,-0.20618 0.61855,-0.20618c0.20618,0 0.41237,0 0.61856,0c0,0 0.20618,0 0.20618,0c0.20618,0 0.20618,0 0.20618,0c0,0 0.20618,0 0.20618,0c0,0 0,0 0.20618,0c0,0 0,0 0,0c0,0 0,0 0.20618,0c0,0 0,0 0,0l-0.20618,0" id="svg_17" stroke-width="6" stroke="#666666" fill="none"/>
  <path style="--darkreader-inline-stroke:#60686c;" d="m87.54639,55.52577c0,0 0.20619,0 0.20619,0c0.20618,0 0.41237,0 0.61855,0c0,0 0.20618,0 0.41237,0c0.20618,0 0.20618,0 0.41238,0c0,0 0.20618,0 0.41237,-0.20618c0,0 0,0 0.20618,0c0,0 0,0 0.20618,0c0,0 0,0 0,0c0.20618,-0.20618 0.20618,-0.20618 0.41238,-0.20618c0,0 0,0 0.20618,0c0,0 0,0 0,0c0.20618,0 0.20618,-0.20619 0.20618,-0.20619c0.20618,0 0.20618,0 0.20618,0c0,0 0.20618,0 0.41237,0c0,0 0,0 0,0c0.20618,0 0.20618,0 0.41238,0c0,0 0.20618,0 0.20618,0c0.20618,0 0.20618,0 0.20618,0c0,0 0,0 0,0c0,0 0,0 0.20618,0c0,0 0,0 0,0c0.20618,0 0.20618,0 0.20618,0c0,0 0,0 0,0c0.20618,0 0.20618,0 0.20618,0c0,0 0,0 0,0l0,0l0,0l0,0" id="svg_18" stroke-width="6" stroke="#666666" fill="none"/>
  <path style="--darkreader-inline-stroke:#60686c;" d="m27.95876,54.90722c0,0 0,0 0.20619,0c0,0 0.20618,0 0.20618,0c0.20619,0 0.20619,0 0.20619,0c0.20619,0 0.20619,0 0.41237,0c0,0 0.20619,0 0.20619,0c0.20618,0.20619 0.41237,0.20619 0.41237,0.20619c0.20619,0 0.20619,0 0.20619,0c0.20618,0 0.20618,0 0.20618,0c0,0 0.20619,0 0.20619,0c0,0 0.20619,0 0.20619,0c0.20618,0 0.20618,0 0.41237,0c0,0 0.20618,0 0.41237,0c0.20619,0 0.34916,-0.0946 0.61856,-0.20619c0.19049,-0.0789 0.41237,0 0.61856,0c0.20618,0 0.20618,0 0.20618,0l0.20619,0l0,0" id="svg_19" stroke-width="6" stroke="#666666" fill="none"/>
 </g>
</svg>